<svg xmlns="http://www.w3.org/2000/svg" width="2050.644" height="1840.678" viewBox="0 0 2050.644 1840.678">
  <g id="Group_16015" data-name="Group 16015" transform="translate(-1771.76 1767.83)">
    <path id="Path_27137" data-name="Path 27137" d="M3599.776-1093.319c-20.209,18.257-75.055,53.932-147.63-9.285l-5.117-4.46-20.451,27.149,4.6,3.858c.6.507,38.659,31.8,88.308,34.816,28.915,1.756,61.744-6.073,93.409-35.13l3.83-3.508-11.258-18.582Z" fill="#390049"/>
    <path id="Path_27138" data-name="Path 27138" d="M3633.347-1221.8l-6.124-.585-.738,30.8,5.424.416c.71.057,45.271,3.024,83.442-20.962,22.231-13.97,42.286-37.068,50.278-75.192l.97-4.606-18.1-7.748-1.476,6.791C3741.767-1268.77,3720.189-1213.534,3633.347-1221.8Z" fill="#390049"/>
    <path id="Path_27139" data-name="Path 27139" d="M3540.8-1196.307l-.865-7.955-18.288,5.638.567,5.4c2.526,24.7,12.9,44.372,30.828,58.444,25.826,20.3,58.454,21.49,58.752,21.5l6.275.179,2.168-26.89-7.09-.07C3553.393-1140.647,3542.653-1179.59,3540.8-1196.307Z" fill="#390049"/>
    <path id="Path_27140" data-name="Path 27140" d="M3520.013-1289.343c15.721,14.425,38.129,25.186,69.724,23.268l3.818-.229,2.187-15.852-5.639.3c-20.031,1.06-67.955-4-80.114-73.835l-.856-4.926-24.3,6.033.837,4.34C3485.782-1349.674,3493.021-1314.112,3520.013-1289.343Z" fill="#390049"/>
    <path id="Path_27141" data-name="Path 27141" d="M3647.482-1267.763c17.513-8.632,29.167-21.669,34.657-38.744,7.717-24.116.1-48.092-.249-49.146l-1.75-5.131-21.331,6.016,2.078,5.778c15.643,43.408-9.626,61.646-21.211,67.463l-6.186,3.1,9.786,12.739Z" fill="#390049"/>
    <path id="Path_27142" data-name="Path 27142" d="M3678.6-1144.087l.253-6.629-15.09,2.3-.215,4.5c-.821,18.159,4.571,33.522,16.04,45.656,16.537,17.483,39.929,21.817,40.174,21.864l5.124.9,4.738-20.4-5.813-.935C3681.624-1103.516,3678.14-1132.1,3678.6-1144.087Z" fill="#390049"/>
    <path id="Path_27143" data-name="Path 27143" d="M3056.332-1021.637c15.721,14.426,38.128,25.187,69.723,23.269l3.819-.229,2.187-15.852-5.639.3c-20.031,1.061-67.955-4-80.114-73.834l-.857-4.926-24.295,6.032.837,4.341C3022.1-1081.968,3029.339-1046.405,3056.332-1021.637Z" fill="#390049"/>
    <path id="Path_27144" data-name="Path 27144" d="M3183.8-1000.057c17.512-8.632,29.167-21.669,34.656-38.744,7.717-24.115.1-48.091-.248-49.145l-1.75-5.132-21.331,6.017,2.078,5.778c15.643,43.407-9.626,61.645-21.212,67.463l-6.185,3.1,9.785,12.739Z" fill="#390049"/>
    <path id="Path_27145" data-name="Path 27145" d="M2873.634-1270.342a80.169,80.169,0,0,0,5.7,6.33c11.043,11.022,24.171,17.254,39.129,18.568,25.57,2.24,47.011-10.811,47.222-10.938l4.589-2.81-10.468-19.271-5.137,3.275c-38.335,24.487-61.384,4.194-69.438-5.7l-4.365-5.3-10.156,12.231Z" fill="#390049"/>
    <path id="Path_27146" data-name="Path 27146" d="M2705.984-1221.8l-6.124-.585-.738,30.8,5.424.416c.711.057,45.271,3.024,83.443-20.962,22.23-13.97,42.285-37.068,50.278-75.192l.97-4.606-18.1-7.748-1.476,6.791C2814.4-1268.77,2792.827-1213.534,2705.984-1221.8Z" fill="#390049"/>
    <path id="Path_27147" data-name="Path 27147" d="M2885.49-1105.581l-7.068-.437.2,26.976,6.241.277c.318.013,32.936,1.2,60.183-17.16,18.908-12.737,30.686-31.589,35-56.042l.959-5.354-17.828-6.956-1.443,7.871C2958.689-1139.867,2945.159-1101.8,2885.49-1105.581Z" fill="#390049"/>
    <path id="Path_27148" data-name="Path 27148" d="M2873.237-1152.8c17.274-6.562,34.311-19.725,45.1-44.925l1.307-3.044-11.42-7.853-1.959,4.481c-6.963,15.917-29.5,51.045-88.281,33.317l-4.145-1.251-4.773,21.15,3.685,1.038C2813.238-1149.752,2843.576-1141.535,2873.237-1152.8Z" fill="#390049"/>
    <path id="Path_27149" data-name="Path 27149" d="M2751.234-1144.087l.253-6.629-15.089,2.3-.215,4.5c-.822,18.159,4.57,33.522,16.039,45.656,16.537,17.483,39.93,21.817,40.174,21.864l5.124.9,4.738-20.4-5.813-.935C2754.261-1103.516,2750.778-1132.1,2751.234-1144.087Z" fill="#390049"/>
    <path id="Path_27150" data-name="Path 27150" d="M3599.776-1628.733c-20.209,18.258-75.055,53.933-147.63-9.284l-5.117-4.46-20.451,27.148,4.6,3.859c.6.507,38.659,31.8,88.308,34.816,28.915,1.756,61.744-6.073,93.409-35.13l3.83-3.509-11.258-18.581Z" fill="#390049"/>
    <path id="Path_27151" data-name="Path 27151" d="M3656.531-1528.8l-21.715-.691,1.21,7.572c4.291,26.894,4.3,92.322-88.256,118.708l-6.529,1.859,11.613,31.944,5.74-1.75c.753-.228,47.736-15.077,77.326-55.058,17.233-23.284,28.565-55.075,21.465-97.461Z" fill="#390049"/>
    <path id="Path_27152" data-name="Path 27152" d="M3608.31-1536.052l3.013-5.151-16.01-14.181-4.495,7.578c-10.024,16.915-40.246,53.233-104.109,25.03l-7.14-3.152-10.313,28.729,6.345,2.675a135.724,135.724,0,0,0,46.55,8.384,108.444,108.444,0,0,0,25.736-2.984C3573.514-1495.409,3593.851-1511.2,3608.31-1536.052Z" fill="#390049"/>
    <path id="Path_27153" data-name="Path 27153" d="M3724.988-1492.36l1.225-7.763-22.259.753-.864,5.253c-7.189,43.465,4.493,76.029,22.207,99.861,30.417,40.922,78.61,56.045,79.382,56.276l5.888,1.783,11.837-32.77-6.7-1.893C3720.77-1397.712,3720.646-1464.781,3724.988-1492.36Z" fill="#390049"/>
    <path id="Path_27154" data-name="Path 27154" d="M3495.5-1429.543l-4.858-1.06-.286,11.436,3.294.751c13.289,3,25.332,1.042,35.794-5.822,15.074-9.9,21.352-26.585,21.418-26.759l1.34-3.662-14.422-6.18-1.455,4.165C3525.827-1426.435,3504.282-1427.628,3495.5-1429.543Z" fill="#390049"/>
    <path id="Path_27155" data-name="Path 27155" d="M3773.658-1590.946l4.3-6.918,13.768,12.709-2.874,4.73c-11.637,19.038-27.674,30.965-47.677,35.433-28.832,6.427-55.608-5.231-55.889-5.351l-5.832-2.6,9.188-24,6.556,3.041C3742.713-1551.749,3765.888-1578.435,3773.658-1590.946Z" fill="#390049"/>
    <path id="Path_27156" data-name="Path 27156" d="M3136.094-1361.026c-20.208,18.258-75.054,53.933-147.629-9.284l-5.117-4.46-20.451,27.148,4.6,3.859c.6.507,38.66,31.8,88.309,34.816,28.915,1.756,61.744-6.074,93.409-35.13l3.83-3.509-11.259-18.582Z" fill="#390049"/>
    <path id="Path_27157" data-name="Path 27157" d="M3337.315-1538.049a80.2,80.2,0,0,0,5.7,6.331c11.044,11.022,24.171,17.253,39.129,18.568,25.57,2.239,47.011-10.811,47.222-10.938l4.589-2.81-10.468-19.272-5.137,3.275c-38.335,24.487-61.384,4.194-69.438-5.7l-4.364-5.3-10.157,12.231Z" fill="#390049"/>
    <path id="Path_27158" data-name="Path 27158" d="M3192.85-1261.095l-21.716-.691,1.211,7.572c4.29,26.894,4.3,92.322-88.257,118.707l-6.528,1.859,11.612,31.944,5.741-1.75c.752-.227,47.736-15.076,77.326-55.057,17.233-23.284,28.564-55.075,21.465-97.461Z" fill="#390049"/>
    <path id="Path_27159" data-name="Path 27159" d="M3169.666-1489.508l-6.125-.584-.737,30.8,5.424.417c.71.057,45.271,3.024,83.442-20.963,22.231-13.97,42.285-37.068,50.278-75.191l.97-4.607-18.1-7.748-1.477,6.791C3278.086-1536.477,3256.508-1481.24,3169.666-1489.508Z" fill="#390049"/>
    <path id="Path_27160" data-name="Path 27160" d="M3077.122-1464.013l-.865-7.956-18.288,5.639.567,5.4c2.526,24.7,12.9,44.373,30.828,58.444,25.826,20.3,58.454,21.49,58.752,21.5l6.275.179,2.168-26.89-7.091-.069C3089.712-1408.354,3078.972-1447.3,3077.122-1464.013Z" fill="#390049"/>
    <path id="Path_27161" data-name="Path 27161" d="M3144.629-1268.345l3.013-5.152-16.011-14.18-4.5,7.577c-10.024,16.916-40.245,53.233-104.109,25.031l-7.14-3.153-10.312,28.73,6.344,2.675a135.777,135.777,0,0,0,46.55,8.383,108.456,108.456,0,0,0,25.737-2.983C3109.833-1227.7,3130.169-1243.494,3144.629-1268.345Z" fill="#390049"/>
    <path id="Path_27162" data-name="Path 27162" d="M3426.057-1315.955c-26.512,52.219-65.365,44.671-80.8,39.033l-7.419-2.715-3.013,18.6,5.012,1.879a89.457,89.457,0,0,0,31.415,6.007,76.7,76.7,0,0,0,33.364-7.647c28.978-13.833,44.312-42,44.452-42.265l2.9-5.479-22.753-13.654Z" fill="#390049"/>
    <path id="Path_27163" data-name="Path 27163" d="M3349.171-1373.288l-7.068-.437.2,26.977,6.242.276c.318.014,32.936,1.2,60.182-17.159,18.909-12.738,30.686-31.59,35.005-56.042l.96-5.354-17.829-6.957-1.442,7.872C3422.371-1407.574,3408.84-1369.506,3349.171-1373.288Z" fill="#390049"/>
    <path id="Path_27164" data-name="Path 27164" d="M3451.249-1216.233l-6.4,4.456c-57.221,39.976-93.9,10.193-106.983-4.485l-5.857-6.574-12.988,17.015,3.948,4.465c18.994,21.61,41.986,33.185,68.339,34.408,1.561.07,3.112.1,4.644.1,36.079,0,64.938-19.133,65.236-19.342l5.718-3.849Z" fill="#390049"/>
    <path id="Path_27165" data-name="Path 27165" d="M3261.307-1224.653l1.225-7.764-22.259.754-.865,5.253c-7.188,43.464,4.494,76.028,22.208,99.861,30.416,40.922,78.609,56.044,79.381,56.276l5.888,1.782,11.837-32.77-6.7-1.892C3257.088-1130.006,3256.965-1197.075,3261.307-1224.653Z" fill="#390049"/>
    <path id="Path_27166" data-name="Path 27166" d="M3056.332-1557.05c15.721,14.426,38.128,25.187,69.723,23.268l3.819-.228,2.187-15.852-5.639.3c-20.031,1.061-67.955-4-80.114-73.834l-.857-4.927-24.295,6.033.837,4.34C3022.1-1617.381,3029.339-1581.819,3056.332-1557.05Z" fill="#390049"/>
    <path id="Path_27167" data-name="Path 27167" d="M3183.8-1535.47c17.512-8.632,29.167-21.669,34.656-38.744,7.717-24.115.1-48.091-.248-49.145l-1.75-5.132-21.331,6.017,2.078,5.777c15.643,43.408-9.626,61.646-21.212,67.464l-6.185,3.1,9.785,12.738Z" fill="#390049"/>
    <path id="Path_27168" data-name="Path 27168" d="M3336.918-1420.509c17.274-6.562,34.311-19.724,45.1-44.925l1.307-3.044-11.42-7.853-1.959,4.482c-6.964,15.916-29.5,51.044-88.281,33.316l-4.145-1.251-4.773,21.15,3.685,1.038C3276.919-1417.458,3307.257-1409.241,3336.918-1420.509Z" fill="#390049"/>
    <path id="Path_27169" data-name="Path 27169" d="M3214.915-1411.793l.254-6.629-15.09,2.305-.215,4.5c-.821,18.159,4.57,33.522,16.039,45.656,16.537,17.482,39.93,21.817,40.174,21.863l5.124.9,4.738-20.4-5.812-.935C3217.942-1371.223,3214.459-1399.8,3214.915-1411.793Z" fill="#390049"/>
    <path id="Path_27170" data-name="Path 27170" d="M3525.83-1255.414l3.554-3.476,6.312,9.54-2.393,2.385c-9.672,9.593-20.917,14.328-33.426,14.064-18.03-.389-32.206-11.2-32.355-11.312l-3.079-2.392,8.943-12.893,3.444,2.758C3501.775-1236.683,3519.4-1249.129,3525.83-1255.414Z" fill="#390049"/>
    <path id="Path_27171" data-name="Path 27171" d="M3031.816-1161.837l-4.857-1.059-.286,11.435,3.294.752c13.288,3,25.332,1.041,35.793-5.822,15.075-9.9,21.352-26.586,21.419-26.76l1.34-3.661-14.423-6.181-1.455,4.166C3062.145-1158.729,3040.6-1159.922,3031.816-1161.837Z" fill="#390049"/>
    <path id="Path_27172" data-name="Path 27172" d="M3309.977-1323.239l4.295-6.919,13.769,12.71-2.874,4.729c-11.637,19.039-27.675,30.966-47.677,35.433-28.833,6.428-55.609-5.23-55.89-5.35l-5.832-2.6,9.188-24.005,6.556,3.042C3279.031-1284.042,3302.206-1310.728,3309.977-1323.239Z" fill="#390049"/>
    <path id="Path_27173" data-name="Path 27173" d="M2962.376-1583.661c-26.513,52.218-65.366,44.67-80.8,39.032l-7.418-2.715-3.013,18.6,5.012,1.88a89.467,89.467,0,0,0,31.414,6.006,76.685,76.685,0,0,0,33.364-7.647c28.978-13.833,44.313-42,44.452-42.264l2.9-5.48-22.753-13.653Z" fill="#390049"/>
    <path id="Path_27174" data-name="Path 27174" d="M2987.568-1483.939l-6.4,4.455c-57.221,39.977-93.9,10.193-106.983-4.485l-5.858-6.573-12.987,17.015,3.948,4.465c18.994,21.609,41.985,33.185,68.338,34.408,1.562.069,3.113.1,4.644.1,36.079,0,64.938-19.133,65.236-19.342l5.719-3.848Z" fill="#390049"/>
    <path id="Path_27175" data-name="Path 27175" d="M2797.626-1492.36l1.224-7.763-22.259.753-.864,5.253c-7.189,43.465,4.493,76.029,22.207,99.861,30.417,40.922,78.61,56.045,79.382,56.276l5.888,1.783,11.837-32.77-6.7-1.893C2793.407-1397.712,2793.283-1464.781,2797.626-1492.36Z" fill="#390049"/>
    <path id="Path_27176" data-name="Path 27176" d="M3062.148-1523.121l3.555-3.476,6.311,9.54-2.392,2.385c-9.672,9.593-20.917,14.328-33.426,14.064-18.03-.388-32.207-11.2-32.356-11.311l-3.079-2.392,8.944-12.893,3.443,2.757C3038.094-1504.389,3055.719-1516.835,3062.148-1523.121Z" fill="#390049"/>
    <path id="Path_27177" data-name="Path 27177" d="M2846.295-1590.946l4.3-6.918,13.768,12.709-2.874,4.73c-11.637,19.038-27.674,30.965-47.677,35.433-28.832,6.427-55.608-5.231-55.889-5.351l-5.832-2.6,9.188-24,6.556,3.041C2815.35-1551.749,2838.525-1578.435,2846.295-1590.946Z" fill="#390049"/>
    <path id="Path_27178" data-name="Path 27178" d="M3261.307-1760.066l1.225-7.764-22.259.753-.865,5.254c-7.188,43.464,4.494,76.028,22.208,99.861,30.416,40.922,78.609,56.044,79.381,56.276l5.888,1.782,11.837-32.77-6.7-1.892C3257.088-1665.419,3256.965-1732.488,3261.307-1760.066Z" fill="#390049"/>
    <path id="Path_27179" data-name="Path 27179" d="M3599.776-557.906c-20.209,18.257-75.055,53.933-147.63-9.285l-5.117-4.46L3426.578-544.5l4.6,3.858c.6.507,38.659,31.8,88.308,34.817,28.915,1.755,61.744-6.074,93.409-35.131l3.83-3.508-11.258-18.582Z" fill="#390049"/>
    <path id="Path_27180" data-name="Path 27180" d="M3633.347-686.388l-6.124-.585-.738,30.8,5.424.417c.71.056,45.271,3.024,83.442-20.963,22.231-13.97,42.286-37.068,50.278-75.191l.97-4.607-18.1-7.748-1.476,6.791C3741.767-733.357,3720.189-678.12,3633.347-686.388Z" fill="#390049"/>
    <path id="Path_27181" data-name="Path 27181" d="M3540.8-660.894l-.865-7.955-18.288,5.638.567,5.4c2.526,24.7,12.9,44.373,30.828,58.444,25.826,20.3,58.454,21.49,58.752,21.5l6.275.179,2.168-26.89-7.09-.069C3553.393-605.234,3542.653-644.177,3540.8-660.894Z" fill="#390049"/>
    <path id="Path_27182" data-name="Path 27182" d="M3520.013-753.93c15.721,14.426,38.129,25.186,69.724,23.268l3.818-.229,2.187-15.852-5.639.3c-20.031,1.06-67.955-4-80.114-73.835l-.856-4.926-24.3,6.033.837,4.34C3485.782-814.261,3493.021-778.7,3520.013-753.93Z" fill="#390049"/>
    <path id="Path_27183" data-name="Path 27183" d="M3647.482-732.35c17.513-8.632,29.167-21.669,34.657-38.744,7.717-24.115.1-48.092-.249-49.146l-1.75-5.131-21.331,6.016,2.078,5.778c15.643,43.408-9.626,61.646-21.211,67.464l-6.186,3.1,9.786,12.739Z" fill="#390049"/>
    <path id="Path_27184" data-name="Path 27184" d="M3678.6-608.673l.253-6.63L3663.76-613l-.215,4.5c-.821,18.159,4.571,33.522,16.04,45.656,16.537,17.482,39.929,21.816,40.174,21.863l5.124.9,4.738-20.4-5.813-.935C3681.624-568.1,3678.14-596.684,3678.6-608.673Z" fill="#390049"/>
    <path id="Path_27185" data-name="Path 27185" d="M3056.332-486.224c15.721,14.426,38.128,25.187,69.723,23.269l3.819-.229,2.187-15.852-5.639.3c-20.031,1.06-67.955-4-80.114-73.835l-.857-4.926-24.295,6.032.837,4.341C3022.1-546.554,3029.339-510.992,3056.332-486.224Z" fill="#390049"/>
    <path id="Path_27186" data-name="Path 27186" d="M3183.8-464.644c17.512-8.631,29.167-21.669,34.656-38.743,7.717-24.116.1-48.092-.248-49.146l-1.75-5.131-21.331,6.016,2.078,5.778c15.643,43.407-9.626,61.646-21.212,67.463l-6.185,3.1,9.785,12.739Z" fill="#390049"/>
    <path id="Path_27187" data-name="Path 27187" d="M2873.634-734.929a80,80,0,0,0,5.7,6.33c11.043,11.023,24.171,17.254,39.129,18.569,25.57,2.239,47.011-10.812,47.222-10.938l4.589-2.811L2959.8-743.05l-5.137,3.275c-38.335,24.487-61.384,4.194-69.438-5.7l-4.365-5.3-10.156,12.232Z" fill="#390049"/>
    <path id="Path_27188" data-name="Path 27188" d="M2705.984-686.388l-6.124-.585-.738,30.8,5.424.417c.711.056,45.271,3.024,83.443-20.963,22.23-13.97,42.285-37.068,50.278-75.191l.97-4.607-18.1-7.748-1.476,6.791C2814.4-733.357,2792.827-678.12,2705.984-686.388Z" fill="#390049"/>
    <path id="Path_27189" data-name="Path 27189" d="M2885.49-570.168l-7.068-.437.2,26.977,6.241.276c.318.013,32.936,1.2,60.183-17.16,18.908-12.737,30.686-31.589,35-56.041l.959-5.355-17.828-6.956-1.443,7.872C2958.689-604.454,2945.159-566.386,2885.49-570.168Z" fill="#390049"/>
    <path id="Path_27190" data-name="Path 27190" d="M2873.237-617.389c17.274-6.562,34.311-19.724,45.1-44.925l1.307-3.044-11.42-7.853-1.959,4.482c-6.963,15.916-29.5,51.044-88.281,33.316l-4.145-1.251-4.773,21.15,3.685,1.038C2813.238-614.339,2843.576-606.121,2873.237-617.389Z" fill="#390049"/>
    <path id="Path_27191" data-name="Path 27191" d="M2751.234-608.673l.253-6.63L2736.4-613l-.215,4.5c-.822,18.159,4.57,33.522,16.039,45.656,16.537,17.482,39.93,21.816,40.174,21.863l5.124.9,4.738-20.4-5.813-.935C2754.261-568.1,2750.778-596.684,2751.234-608.673Z" fill="#390049"/>
    <path id="Path_27192" data-name="Path 27192" d="M3599.776-1093.319c-20.209,18.257-75.055,53.932-147.63-9.285l-5.117-4.46-20.451,27.149,4.6,3.858c.6.507,38.659,31.8,88.308,34.816,28.915,1.756,61.744-6.073,93.409-35.13l3.83-3.508-11.258-18.582Z" fill="#390049"/>
    <path id="Path_27193" data-name="Path 27193" d="M3656.531-993.389l-21.715-.69,1.21,7.571c4.291,26.894,4.3,92.322-88.256,118.708l-6.529,1.859L3552.854-834l5.74-1.75c.753-.228,47.736-15.077,77.326-55.057,17.233-23.285,28.565-55.076,21.465-97.462Z" fill="#390049"/>
    <path id="Path_27194" data-name="Path 27194" d="M3608.31-1000.639l3.013-5.151-16.01-14.181-4.495,7.578c-10.024,16.915-40.246,53.233-104.109,25.03l-7.14-3.152-10.313,28.729,6.345,2.676a135.769,135.769,0,0,0,46.55,8.383,108.447,108.447,0,0,0,25.736-2.984C3573.514-960,3593.851-975.787,3608.31-1000.639Z" fill="#390049"/>
    <path id="Path_27195" data-name="Path 27195" d="M3724.988-956.946l1.225-7.764-22.259.753-.864,5.254c-7.189,43.464,4.493,76.028,22.207,99.861,30.417,40.921,78.61,56.044,79.382,56.275l5.888,1.783,11.837-32.77-6.7-1.892C3720.77-862.3,3720.646-929.368,3724.988-956.946Z" fill="#390049"/>
    <path id="Path_27196" data-name="Path 27196" d="M3495.5-894.13l-4.858-1.06-.286,11.436,3.294.751c13.289,3,25.332,1.042,35.794-5.822,15.074-9.9,21.352-26.585,21.418-26.759l1.34-3.661-14.422-6.181-1.455,4.165C3525.827-891.022,3504.282-892.215,3495.5-894.13Z" fill="#390049"/>
    <path id="Path_27197" data-name="Path 27197" d="M3773.658-1055.532l4.3-6.919,13.768,12.71-2.874,4.729c-11.637,19.039-27.674,30.965-47.677,35.433-28.832,6.427-55.608-5.23-55.889-5.351l-5.832-2.6,9.188-24,6.556,3.041C3742.713-1016.336,3765.888-1043.022,3773.658-1055.532Z" fill="#390049"/>
    <path id="Path_27198" data-name="Path 27198" d="M3136.094-825.613c-20.208,18.258-75.054,53.933-147.629-9.284l-5.117-4.46L2962.9-812.209l4.6,3.859c.6.507,38.66,31.8,88.309,34.816,28.915,1.756,61.744-6.074,93.409-35.13l3.83-3.509-11.259-18.582Z" fill="#390049"/>
    <path id="Path_27199" data-name="Path 27199" d="M3337.315-1002.635a80.361,80.361,0,0,0,5.7,6.33c11.044,11.022,24.171,17.253,39.129,18.568,25.57,2.239,47.011-10.811,47.222-10.938l4.589-2.81-10.468-19.271-5.137,3.274c-38.335,24.487-61.384,4.2-69.438-5.7l-4.364-5.3-10.157,12.231Z" fill="#390049"/>
    <path id="Path_27200" data-name="Path 27200" d="M3192.85-725.682l-21.716-.691,1.211,7.572c4.29,26.894,4.3,92.322-88.257,118.707l-6.528,1.859,11.612,31.945,5.741-1.751c.752-.227,47.736-15.076,77.326-55.057,17.233-23.284,28.564-55.075,21.465-97.461Z" fill="#390049"/>
    <path id="Path_27201" data-name="Path 27201" d="M3169.666-954.095l-6.125-.584-.737,30.8,5.424.416c.71.057,45.271,3.024,83.442-20.963,22.231-13.97,42.285-37.068,50.278-75.191l.97-4.606-18.1-7.748-1.477,6.79C3278.086-1001.063,3256.508-945.827,3169.666-954.095Z" fill="#390049"/>
    <path id="Path_27202" data-name="Path 27202" d="M3077.122-928.6l-.865-7.956-18.288,5.639.567,5.4c2.526,24.7,12.9,44.372,30.828,58.443,25.826,20.3,58.454,21.491,58.752,21.5l6.275.179,2.168-26.889-7.091-.07C3089.712-872.941,3078.972-911.883,3077.122-928.6Z" fill="#390049"/>
    <path id="Path_27203" data-name="Path 27203" d="M3144.629-732.932l3.013-5.151-16.011-14.181-4.5,7.577c-10.024,16.916-40.245,53.233-104.109,25.031l-7.14-3.153-10.312,28.73,6.344,2.675a135.751,135.751,0,0,0,46.55,8.383A108.453,108.453,0,0,0,3084.206-686C3109.833-692.289,3130.169-708.081,3144.629-732.932Z" fill="#390049"/>
    <path id="Path_27204" data-name="Path 27204" d="M3426.057-780.541c-26.512,52.218-65.365,44.67-80.8,39.032l-7.419-2.715-3.013,18.6,5.012,1.88a89.477,89.477,0,0,0,31.415,6.006,76.7,76.7,0,0,0,33.364-7.647c28.978-13.833,44.312-42,44.452-42.264l2.9-5.48-22.753-13.654Z" fill="#390049"/>
    <path id="Path_27205" data-name="Path 27205" d="M3349.171-837.875l-7.068-.436.2,26.976,6.242.277c.318.013,32.936,1.2,60.182-17.16,18.909-12.737,30.686-31.59,35.005-56.042l.96-5.354-17.829-6.956-1.442,7.871C3422.371-872.161,3408.84-834.093,3349.171-837.875Z" fill="#390049"/>
    <path id="Path_27206" data-name="Path 27206" d="M3451.249-680.819l-6.4,4.455c-57.221,39.977-93.9,10.193-106.983-4.485L3332-687.423l-12.988,17.015,3.948,4.466c18.994,21.609,41.986,33.184,68.339,34.408,1.561.069,3.112.1,4.644.1,36.079,0,64.938-19.133,65.236-19.342l5.718-3.849Z" fill="#390049"/>
    <path id="Path_27207" data-name="Path 27207" d="M3261.307-689.24l1.225-7.764-22.259.754-.865,5.253c-7.188,43.464,4.494,76.028,22.208,99.861,30.416,40.922,78.609,56.044,79.381,56.276l5.888,1.782,11.837-32.77-6.7-1.892C3257.088-594.593,3256.965-661.662,3261.307-689.24Z" fill="#390049"/>
    <path id="Path_27208" data-name="Path 27208" d="M3056.332-1021.637c15.721,14.426,38.128,25.187,69.723,23.269l3.819-.229,2.187-15.852-5.639.3c-20.031,1.061-67.955-4-80.114-73.834l-.857-4.926-24.295,6.032.837,4.341C3022.1-1081.968,3029.339-1046.405,3056.332-1021.637Z" fill="#390049"/>
    <path id="Path_27209" data-name="Path 27209" d="M3183.8-1000.057c17.512-8.632,29.167-21.669,34.656-38.744,7.717-24.115.1-48.091-.248-49.145l-1.75-5.132-21.331,6.017,2.078,5.778c15.643,43.407-9.626,61.645-21.212,67.463l-6.185,3.1,9.785,12.739Z" fill="#390049"/>
    <path id="Path_27210" data-name="Path 27210" d="M3336.918-885.1c17.274-6.562,34.311-19.724,45.1-44.925l1.307-3.044-11.42-7.853-1.959,4.482c-6.964,15.916-29.5,51.044-88.281,33.317l-4.145-1.252-4.773,21.15,3.685,1.038C3276.919-882.045,3307.257-873.828,3336.918-885.1Z" fill="#390049"/>
    <path id="Path_27211" data-name="Path 27211" d="M3214.915-876.38l.254-6.629-15.09,2.3-.215,4.5c-.821,18.159,4.57,33.522,16.039,45.656,16.537,17.482,39.93,21.817,40.174,21.864l5.124.9,4.738-20.395-5.812-.935C3217.942-835.809,3214.459-864.391,3214.915-876.38Z" fill="#390049"/>
    <path id="Path_27212" data-name="Path 27212" d="M3525.83-720l3.554-3.476,6.312,9.54-2.393,2.385c-9.672,9.593-20.917,14.328-33.426,14.064-18.03-.388-32.206-11.2-32.355-11.312l-3.079-2.392,8.943-12.893,3.444,2.758C3501.775-701.269,3519.4-713.715,3525.83-720Z" fill="#390049"/>
    <path id="Path_27213" data-name="Path 27213" d="M3031.816-626.424l-4.857-1.059-.286,11.435,3.294.752c13.288,3,25.332,1.042,35.793-5.822,15.075-9.9,21.352-26.585,21.419-26.759l1.34-3.662-14.423-6.18-1.455,4.165C3062.145-623.315,3040.6-624.509,3031.816-626.424Z" fill="#390049"/>
    <path id="Path_27214" data-name="Path 27214" d="M3309.977-787.826l4.295-6.918,13.769,12.709-2.874,4.729c-11.637,19.039-27.675,30.966-47.677,35.433-28.833,6.428-55.609-5.23-55.89-5.35l-5.832-2.6,9.188-24,6.556,3.041C3279.031-748.629,3302.206-775.315,3309.977-787.826Z" fill="#390049"/>
    <path id="Path_27215" data-name="Path 27215" d="M2962.376-1048.248c-26.513,52.219-65.366,44.671-80.8,39.032l-7.418-2.715-3.013,18.6,5.012,1.879a89.449,89.449,0,0,0,31.414,6.007,76.687,76.687,0,0,0,33.364-7.648c28.978-13.833,44.313-41.995,44.452-42.264l2.9-5.479-22.753-13.654Z" fill="#390049"/>
    <path id="Path_27216" data-name="Path 27216" d="M2987.568-948.526l-6.4,4.455c-57.221,39.977-93.9,10.193-106.983-4.485l-5.858-6.573-12.987,17.015,3.948,4.465c18.994,21.609,41.985,33.185,68.338,34.408,1.562.07,3.113.1,4.644.1,36.079,0,64.938-19.133,65.236-19.342l5.719-3.848Z" fill="#390049"/>
    <path id="Path_27217" data-name="Path 27217" d="M2797.626-956.946l1.224-7.764-22.259.753-.864,5.254c-7.189,43.464,4.493,76.028,22.207,99.861,30.417,40.921,78.61,56.044,79.382,56.275l5.888,1.783,11.837-32.77-6.7-1.892C2793.407-862.3,2793.283-929.368,2797.626-956.946Z" fill="#390049"/>
    <path id="Path_27218" data-name="Path 27218" d="M3062.148-987.707l3.555-3.477,6.311,9.541-2.392,2.385c-9.672,9.592-20.917,14.328-33.426,14.063-18.03-.388-32.207-11.2-32.356-11.311l-3.079-2.392,8.944-12.893,3.443,2.758C3038.094-968.976,3055.719-981.422,3062.148-987.707Z" fill="#390049"/>
    <path id="Path_27219" data-name="Path 27219" d="M2846.295-1055.532l4.3-6.919,13.768,12.71-2.874,4.729c-11.637,19.039-27.674,30.965-47.677,35.433-28.832,6.427-55.608-5.23-55.889-5.351l-5.832-2.6,9.188-24,6.556,3.041C2815.35-1016.336,2838.525-1043.022,2846.295-1055.532Z" fill="#390049"/>
    <path id="Path_27220" data-name="Path 27220" d="M3261.307-1224.653l1.225-7.764-22.259.754-.865,5.253c-7.188,43.464,4.494,76.028,22.208,99.861,30.416,40.922,78.609,56.044,79.381,56.276l5.888,1.782,11.837-32.77-6.7-1.892C3257.088-1130.006,3256.965-1197.075,3261.307-1224.653Z" fill="#390049"/>
    <path id="Path_27221" data-name="Path 27221" d="M3599.776-22.493c-20.209,18.258-75.055,53.933-147.63-9.284l-5.117-4.461L3426.578-9.089l4.6,3.858c.6.508,38.659,31.8,88.308,34.817,28.915,1.756,61.744-6.074,93.409-35.13l3.83-3.509-11.258-18.582Z" fill="#390049"/>
    <path id="Path_27222" data-name="Path 27222" d="M3633.347-150.975l-6.124-.584-.738,30.8,5.424.417c.71.057,45.271,3.024,83.442-20.963,22.231-13.97,42.286-37.068,50.278-75.191l.97-4.607-18.1-7.748-1.476,6.791C3741.767-197.944,3720.189-142.707,3633.347-150.975Z" fill="#390049"/>
    <path id="Path_27223" data-name="Path 27223" d="M3540.8-125.48l-.865-7.956L3521.65-127.8l.567,5.4c2.526,24.7,12.9,44.373,30.828,58.444,25.826,20.3,58.454,21.49,58.752,21.5l6.275.179,2.168-26.89-7.09-.069C3553.393-69.821,3542.653-108.764,3540.8-125.48Z" fill="#390049"/>
    <path id="Path_27224" data-name="Path 27224" d="M3520.013-218.517c15.721,14.426,38.129,25.187,69.724,23.268l3.818-.228,2.187-15.852-5.639.3c-20.031,1.06-67.955-4-80.114-73.834l-.856-4.927-24.3,6.033.837,4.34C3485.782-278.848,3493.021-243.286,3520.013-218.517Z" fill="#390049"/>
    <path id="Path_27225" data-name="Path 27225" d="M3647.482-196.937c17.513-8.632,29.167-21.669,34.657-38.744,7.717-24.115.1-48.091-.249-49.146l-1.75-5.131-21.331,6.017,2.078,5.777c15.643,43.408-9.626,61.646-21.211,67.464l-6.186,3.1,9.786,12.739Z" fill="#390049"/>
    <path id="Path_27226" data-name="Path 27226" d="M3678.6-73.26l.253-6.63-15.09,2.306-.215,4.5c-.821,18.159,4.571,33.522,16.04,45.656,16.537,17.482,39.929,21.817,40.174,21.863l5.124.9,4.738-20.4-5.813-.935C3681.624-32.69,3678.14-61.271,3678.6-73.26Z" fill="#390049"/>
    <path id="Path_27227" data-name="Path 27227" d="M3056.332,49.19c15.721,14.425,38.128,25.186,69.723,23.268l3.819-.229,2.187-15.852-5.639.3c-20.031,1.06-67.955-4-80.114-73.835l-.857-4.926-24.295,6.033.837,4.34C3022.1-11.141,3029.339,24.421,3056.332,49.19Z" fill="#390049"/>
    <path id="Path_27228" data-name="Path 27228" d="M3183.8,70.77c17.512-8.632,29.167-21.669,34.656-38.744,7.717-24.116.1-48.092-.248-49.146l-1.75-5.131-21.331,6.016,2.078,5.778c15.643,43.408-9.626,61.646-21.212,67.463l-6.185,3.1,9.785,12.739Z" fill="#390049"/>
    <path id="Path_27229" data-name="Path 27229" d="M2873.634-199.516a79.814,79.814,0,0,0,5.7,6.33c11.043,11.023,24.171,17.254,39.129,18.569,25.57,2.239,47.011-10.812,47.222-10.938l4.589-2.81L2959.8-207.637l-5.137,3.275c-38.335,24.487-61.384,4.194-69.438-5.7l-4.365-5.3-10.156,12.231Z" fill="#390049"/>
    <path id="Path_27230" data-name="Path 27230" d="M2705.984-150.975l-6.124-.584-.738,30.8,5.424.417c.711.057,45.271,3.024,83.443-20.963,22.23-13.97,42.285-37.068,50.278-75.191l.97-4.607-18.1-7.748-1.476,6.791C2814.4-197.944,2792.827-142.707,2705.984-150.975Z" fill="#390049"/>
    <path id="Path_27231" data-name="Path 27231" d="M2885.49-34.755l-7.068-.437.2,26.977,6.241.276c.318.014,32.936,1.2,60.183-17.159,18.908-12.738,30.686-31.59,35-56.042l.959-5.354-17.828-6.957-1.443,7.872C2958.689-69.041,2945.159-30.973,2885.49-34.755Z" fill="#390049"/>
    <path id="Path_27232" data-name="Path 27232" d="M2873.237-81.976c17.274-6.562,34.311-19.724,45.1-44.925l1.307-3.044-11.42-7.853-1.959,4.482c-6.963,15.916-29.5,51.044-88.281,33.316l-4.145-1.251L2809.07-80.1l3.685,1.038C2813.238-78.925,2843.576-70.708,2873.237-81.976Z" fill="#390049"/>
    <path id="Path_27233" data-name="Path 27233" d="M2751.234-73.26l.253-6.63L2736.4-77.584l-.215,4.5c-.822,18.159,4.57,33.522,16.039,45.656,16.537,17.482,39.93,21.817,40.174,21.863l5.124.9,4.738-20.4-5.813-.935C2754.261-32.69,2750.778-61.271,2751.234-73.26Z" fill="#390049"/>
    <path id="Path_27234" data-name="Path 27234" d="M3599.776-557.906c-20.209,18.257-75.055,53.933-147.63-9.285l-5.117-4.46L3426.578-544.5l4.6,3.858c.6.507,38.659,31.8,88.308,34.817,28.915,1.755,61.744-6.074,93.409-35.131l3.83-3.508-11.258-18.582Z" fill="#390049"/>
    <path id="Path_27235" data-name="Path 27235" d="M3656.531-457.976l-21.715-.69,1.21,7.571c4.291,26.895,4.3,92.323-88.256,118.708l-6.529,1.859,11.613,31.944,5.74-1.75c.753-.228,47.736-15.077,77.326-55.057,17.233-23.285,28.565-55.075,21.465-97.461Z" fill="#390049"/>
    <path id="Path_27236" data-name="Path 27236" d="M3608.31-465.226l3.013-5.151-16.01-14.181-4.495,7.578c-10.024,16.916-40.246,53.233-104.109,25.03l-7.14-3.152-10.313,28.73,6.345,2.675a135.77,135.77,0,0,0,46.55,8.383,108.446,108.446,0,0,0,25.736-2.983C3573.514-424.582,3593.851-440.374,3608.31-465.226Z" fill="#390049"/>
    <path id="Path_27237" data-name="Path 27237" d="M3724.988-421.533l1.225-7.764-22.259.753-.864,5.254c-7.189,43.464,4.493,76.028,22.207,99.861,30.417,40.921,78.61,56.044,79.382,56.276l5.888,1.782,11.837-32.77-6.7-1.892C3720.77-326.886,3720.646-393.955,3724.988-421.533Z" fill="#390049"/>
    <path id="Path_27238" data-name="Path 27238" d="M3495.5-358.717l-4.858-1.06-.286,11.436,3.294.751c13.289,3,25.332,1.042,35.794-5.821,15.074-9.9,21.352-26.586,21.418-26.76l1.34-3.661-14.422-6.181-1.455,4.165C3525.827-355.609,3504.282-356.8,3495.5-358.717Z" fill="#390049"/>
    <path id="Path_27239" data-name="Path 27239" d="M3773.658-520.119l4.3-6.919,13.768,12.71-2.874,4.729c-11.637,19.039-27.674,30.965-47.677,35.433-28.832,6.428-55.608-5.23-55.889-5.35l-5.832-2.6,9.188-24,6.556,3.041C3742.713-480.923,3765.888-507.608,3773.658-520.119Z" fill="#390049"/>
    <path id="Path_27240" data-name="Path 27240" d="M3136.094-290.2c-20.208,18.258-75.054,53.933-147.629-9.284l-5.117-4.46L2962.9-276.8l4.6,3.859c.6.507,38.66,31.8,88.309,34.816,28.915,1.756,61.744-6.073,93.409-35.13l3.83-3.509-11.259-18.581Z" fill="#390049"/>
    <path id="Path_27241" data-name="Path 27241" d="M3337.315-467.222a80.361,80.361,0,0,0,5.7,6.33c11.044,11.022,24.171,17.254,39.129,18.568,25.57,2.24,47.011-10.811,47.222-10.938l4.589-2.81-10.468-19.271-5.137,3.275c-38.335,24.486-61.384,4.194-69.438-5.7l-4.364-5.3-10.157,12.231Z" fill="#390049"/>
    <path id="Path_27242" data-name="Path 27242" d="M3192.85-190.269l-21.716-.691,1.211,7.572c4.29,26.894,4.3,92.322-88.257,118.707l-6.528,1.859,11.612,31.945,5.741-1.751c.752-.227,47.736-15.076,77.326-55.057,17.233-23.284,28.564-55.075,21.465-97.461Z" fill="#390049"/>
    <path id="Path_27243" data-name="Path 27243" d="M3169.666-418.681l-6.125-.585-.737,30.8,5.424.416c.71.057,45.271,3.024,83.442-20.963,22.231-13.97,42.285-37.067,50.278-75.191l.97-4.606-18.1-7.748-1.477,6.791C3278.086-465.65,3256.508-410.414,3169.666-418.681Z" fill="#390049"/>
    <path id="Path_27244" data-name="Path 27244" d="M3077.122-393.187l-.865-7.956-18.288,5.639.567,5.4c2.526,24.7,12.9,44.372,30.828,58.444,25.826,20.3,58.454,21.49,58.752,21.5l6.275.179,2.168-26.89-7.091-.07C3089.712-337.528,3078.972-376.47,3077.122-393.187Z" fill="#390049"/>
    <path id="Path_27245" data-name="Path 27245" d="M3144.629-197.519l3.013-5.151-16.011-14.181-4.5,7.578c-10.024,16.915-40.245,53.233-104.109,25.03l-7.14-3.152-10.312,28.729,6.344,2.675a135.737,135.737,0,0,0,46.55,8.384,108.456,108.456,0,0,0,25.737-2.984C3109.833-156.876,3130.169-172.668,3144.629-197.519Z" fill="#390049"/>
    <path id="Path_27246" data-name="Path 27246" d="M3426.057-245.128c-26.512,52.218-65.365,44.67-80.8,39.032l-7.419-2.715-3.013,18.6,5.012,1.88a89.476,89.476,0,0,0,31.415,6.006,76.7,76.7,0,0,0,33.364-7.647c28.978-13.833,44.312-42,44.452-42.264l2.9-5.48-22.753-13.653Z" fill="#390049"/>
    <path id="Path_27247" data-name="Path 27247" d="M3349.171-302.462l-7.068-.436.2,26.976,6.242.277c.318.013,32.936,1.2,60.182-17.16,18.909-12.737,30.686-31.589,35.005-56.042l.96-5.354-17.829-6.956-1.442,7.871C3422.371-336.748,3408.84-298.68,3349.171-302.462Z" fill="#390049"/>
    <path id="Path_27248" data-name="Path 27248" d="M3451.249-145.406l-6.4,4.455c-57.221,39.977-93.9,10.193-106.983-4.485L3332-152.009l-12.988,17.015,3.948,4.465c18.994,21.609,41.986,33.185,68.339,34.408,1.561.069,3.112.1,4.644.1,36.079,0,64.938-19.133,65.236-19.342l5.718-3.848Z" fill="#390049"/>
    <path id="Path_27249" data-name="Path 27249" d="M3261.307-153.827l1.225-7.763-22.259.753-.865,5.253c-7.188,43.465,4.494,76.029,22.208,99.861C3292.032-14.8,3340.225.322,3341,.553l5.888,1.783,11.837-32.77-6.7-1.893C3257.088-59.179,3256.965-126.249,3261.307-153.827Z" fill="#390049"/>
    <path id="Path_27250" data-name="Path 27250" d="M3056.332-486.224c15.721,14.426,38.128,25.187,69.723,23.269l3.819-.229,2.187-15.852-5.639.3c-20.031,1.06-67.955-4-80.114-73.835l-.857-4.926-24.295,6.032.837,4.341C3022.1-546.554,3029.339-510.992,3056.332-486.224Z" fill="#390049"/>
    <path id="Path_27251" data-name="Path 27251" d="M3183.8-464.644c17.512-8.631,29.167-21.669,34.656-38.743,7.717-24.116.1-48.092-.248-49.146l-1.75-5.131-21.331,6.016,2.078,5.778c15.643,43.407-9.626,61.646-21.212,67.463l-6.185,3.1,9.785,12.739Z" fill="#390049"/>
    <path id="Path_27252" data-name="Path 27252" d="M3336.918-349.682c17.274-6.563,34.311-19.725,45.1-44.925l1.307-3.045-11.42-7.853-1.959,4.482c-6.964,15.916-29.5,51.045-88.281,33.317l-4.145-1.251-4.773,21.15,3.685,1.038C3276.919-346.632,3307.257-338.415,3336.918-349.682Z" fill="#390049"/>
    <path id="Path_27253" data-name="Path 27253" d="M3214.915-340.967l.254-6.629-15.09,2.305-.215,4.5c-.821,18.159,4.57,33.522,16.039,45.656,16.537,17.483,39.93,21.817,40.174,21.864l5.124.9,4.738-20.395-5.812-.935C3217.942-300.4,3214.459-328.978,3214.915-340.967Z" fill="#390049"/>
    <path id="Path_27254" data-name="Path 27254" d="M3525.83-184.588l3.554-3.476,6.312,9.54-2.393,2.385c-9.672,9.593-20.917,14.328-33.426,14.064-18.03-.388-32.206-11.2-32.355-11.311l-3.079-2.392,8.943-12.894,3.444,2.758C3501.775-165.856,3519.4-178.3,3525.83-184.588Z" fill="#390049"/>
    <path id="Path_27255" data-name="Path 27255" d="M3031.816-91.01l-4.857-1.06-.286,11.435,3.294.752c13.288,3,25.332,1.042,35.793-5.822,15.075-9.9,21.352-26.585,21.419-26.759l1.34-3.662-14.423-6.18-1.455,4.165C3062.145-87.9,3040.6-89.1,3031.816-91.01Z" fill="#390049"/>
    <path id="Path_27256" data-name="Path 27256" d="M3309.977-252.413l4.295-6.918,13.769,12.709-2.874,4.729c-11.637,19.039-27.675,30.966-47.677,35.433-28.833,6.428-55.609-5.23-55.89-5.35l-5.832-2.6,9.188-24,6.556,3.041C3279.031-213.216,3302.206-239.9,3309.977-252.413Z" fill="#390049"/>
    <path id="Path_27257" data-name="Path 27257" d="M2962.376-512.835c-26.513,52.219-65.366,44.671-80.8,39.032l-7.418-2.715-3.013,18.6,5.012,1.879a89.449,89.449,0,0,0,31.414,6.007,76.687,76.687,0,0,0,33.364-7.648c28.978-13.832,44.313-41.995,44.452-42.264l2.9-5.479-22.753-13.654Z" fill="#390049"/>
    <path id="Path_27258" data-name="Path 27258" d="M2987.568-413.113l-6.4,4.455c-57.221,39.977-93.9,10.193-106.983-4.485l-5.858-6.573L2855.336-402.7l3.948,4.465c18.994,21.61,41.985,33.185,68.338,34.408,1.562.07,3.113.1,4.644.1,36.079,0,64.938-19.134,65.236-19.343l5.719-3.848Z" fill="#390049"/>
    <path id="Path_27259" data-name="Path 27259" d="M2797.626-421.533l1.224-7.764-22.259.753-.864,5.254c-7.189,43.464,4.493,76.028,22.207,99.861,30.417,40.921,78.61,56.044,79.382,56.276l5.888,1.782,11.837-32.77-6.7-1.892C2793.407-326.886,2793.283-393.955,2797.626-421.533Z" fill="#390049"/>
    <path id="Path_27260" data-name="Path 27260" d="M3062.148-452.294l3.555-3.476,6.311,9.54-2.392,2.385c-9.672,9.593-20.917,14.328-33.426,14.063-18.03-.388-32.207-11.2-32.356-11.311l-3.079-2.392,8.944-12.893,3.443,2.758C3038.094-433.563,3055.719-446.009,3062.148-452.294Z" fill="#390049"/>
    <path id="Path_27261" data-name="Path 27261" d="M2846.295-520.119l4.3-6.919,13.768,12.71-2.874,4.729c-11.637,19.039-27.674,30.965-47.677,35.433-28.832,6.428-55.608-5.23-55.889-5.35l-5.832-2.6,9.188-24,6.556,3.041C2815.35-480.923,2838.525-507.608,2846.295-520.119Z" fill="#390049"/>
    <path id="Path_27262" data-name="Path 27262" d="M3261.307-689.24l1.225-7.764-22.259.754-.865,5.253c-7.188,43.464,4.494,76.028,22.208,99.861,30.416,40.922,78.609,56.044,79.381,56.276l5.888,1.782,11.837-32.77-6.7-1.892C3257.088-594.593,3256.965-661.662,3261.307-689.24Z" fill="#390049"/>
    <path id="Path_27263" data-name="Path 27263" d="M2672.413-1093.319c-20.209,18.257-75.055,53.932-147.63-9.285l-5.117-4.46-20.45,27.149,4.6,3.858c.6.507,38.66,31.8,88.308,34.816,28.915,1.756,61.744-6.073,93.41-35.13l3.829-3.508-11.258-18.582Z" fill="#390049"/>
    <path id="Path_27264" data-name="Path 27264" d="M2705.984-1221.8l-6.124-.585-.738,30.8,5.424.416c.711.057,45.271,3.024,83.443-20.962,22.23-13.97,42.285-37.068,50.278-75.192l.97-4.606-18.1-7.748-1.476,6.791C2814.4-1268.77,2792.827-1213.534,2705.984-1221.8Z" fill="#390049"/>
    <path id="Path_27265" data-name="Path 27265" d="M2613.441-1196.307l-.866-7.955-18.287,5.638.566,5.4c2.526,24.7,12.9,44.372,30.828,58.444,25.826,20.3,58.454,21.49,58.752,21.5l6.275.179,2.168-26.89-7.09-.07C2626.03-1140.647,2615.29-1179.59,2613.441-1196.307Z" fill="#390049"/>
    <path id="Path_27266" data-name="Path 27266" d="M2592.65-1289.343c15.721,14.425,38.129,25.186,69.724,23.268l3.819-.229,2.187-15.852-5.64.3c-20.03,1.06-67.955-4-80.114-73.835l-.856-4.926-24.3,6.033.837,4.34C2558.419-1349.674,2565.658-1314.112,2592.65-1289.343Z" fill="#390049"/>
    <path id="Path_27267" data-name="Path 27267" d="M2720.119-1267.763c17.513-8.632,29.168-21.669,34.657-38.744,7.717-24.116.1-48.092-.249-49.146l-1.75-5.131-21.331,6.016,2.079,5.778c15.642,43.408-9.627,61.646-21.212,67.463l-6.185,3.1,9.785,12.739Z" fill="#390049"/>
    <path id="Path_27268" data-name="Path 27268" d="M2751.234-1144.087l.253-6.629-15.089,2.3-.215,4.5c-.822,18.159,4.57,33.522,16.039,45.656,16.537,17.483,39.93,21.817,40.174,21.864l5.124.9,4.738-20.4-5.813-.935C2754.261-1103.516,2750.778-1132.1,2751.234-1144.087Z" fill="#390049"/>
    <path id="Path_27269" data-name="Path 27269" d="M2128.969-1021.637c15.721,14.426,38.129,25.187,69.723,23.269l3.819-.229,2.187-15.852-5.639.3c-20.031,1.061-67.955-4-80.114-73.834l-.856-4.926-24.3,6.032.837,4.341C2094.738-1081.968,2101.977-1046.405,2128.969-1021.637Z" fill="#390049"/>
    <path id="Path_27270" data-name="Path 27270" d="M2256.438-1000.057c17.512-8.632,29.167-21.669,34.657-38.744,7.717-24.115.1-48.091-.249-49.145l-1.75-5.132-21.331,6.017,2.078,5.778c15.643,43.407-9.626,61.645-21.211,67.463l-6.186,3.1,9.785,12.739Z" fill="#390049"/>
    <path id="Path_27271" data-name="Path 27271" d="M1946.271-1270.342a80.168,80.168,0,0,0,5.695,6.33c11.043,11.022,24.171,17.254,39.129,18.568,25.57,2.24,47.011-10.811,47.222-10.938l4.589-2.81-10.468-19.271-5.137,3.275c-38.335,24.487-61.384,4.194-69.438-5.7l-4.365-5.3-10.156,12.231Z" fill="#390049"/>
    <path id="Path_27272" data-name="Path 27272" d="M1778.622-1221.8l-6.125-.585-.737,30.8,5.423.416c.711.057,45.271,3.024,83.443-20.962,22.231-13.97,42.285-37.068,50.278-75.192l.97-4.606-18.1-7.748-1.476,6.791C1887.042-1268.77,1865.464-1213.534,1778.622-1221.8Z" fill="#390049"/>
    <path id="Path_27273" data-name="Path 27273" d="M1958.127-1105.581l-7.068-.437.2,26.976,6.241.277c.318.013,32.937,1.2,60.183-17.16,18.908-12.737,30.686-31.589,35-56.042l.96-5.354-17.829-6.956-1.442,7.871C2031.327-1139.867,2017.8-1101.8,1958.127-1105.581Z" fill="#390049"/>
    <path id="Path_27274" data-name="Path 27274" d="M1945.874-1152.8c17.274-6.562,34.311-19.725,45.1-44.925l1.308-3.044-11.42-7.853-1.96,4.481c-6.963,15.917-29.5,51.045-88.281,33.317l-4.145-1.251-4.772,21.15,3.685,1.038C1885.875-1149.752,1916.213-1141.535,1945.874-1152.8Z" fill="#390049"/>
    <path id="Path_27275" data-name="Path 27275" d="M1823.871-1144.087l.253-6.629-15.089,2.3-.215,4.5c-.822,18.159,4.57,33.522,16.039,45.656,16.537,17.483,39.93,21.817,40.174,21.864l5.124.9,4.738-20.4-5.813-.935C1826.9-1103.516,1823.415-1132.1,1823.871-1144.087Z" fill="#390049"/>
    <path id="Path_27276" data-name="Path 27276" d="M2672.413-1628.733c-20.209,18.258-75.055,53.933-147.63-9.284l-5.117-4.46-20.45,27.148,4.6,3.859c.6.507,38.66,31.8,88.308,34.816,28.915,1.756,61.744-6.073,93.41-35.13l3.829-3.509-11.258-18.581Z" fill="#390049"/>
    <path id="Path_27277" data-name="Path 27277" d="M2729.169-1528.8l-21.716-.691,1.211,7.572c4.29,26.894,4.3,92.322-88.257,118.708l-6.529,1.859,11.613,31.944,5.74-1.75c.753-.228,47.736-15.077,77.326-55.058,17.234-23.284,28.565-55.075,21.466-97.461Z" fill="#390049"/>
    <path id="Path_27278" data-name="Path 27278" d="M2680.947-1536.052l3.013-5.151-16.01-14.181-4.495,7.578c-10.024,16.915-40.246,53.233-104.109,25.03l-7.14-3.152-10.313,28.729,6.345,2.675a135.726,135.726,0,0,0,46.55,8.384,108.442,108.442,0,0,0,25.736-2.984C2646.151-1495.409,2666.488-1511.2,2680.947-1536.052Z" fill="#390049"/>
    <path id="Path_27279" data-name="Path 27279" d="M2797.626-1492.36l1.224-7.763-22.259.753-.864,5.253c-7.189,43.465,4.493,76.029,22.207,99.861,30.417,40.922,78.61,56.045,79.382,56.276l5.888,1.783,11.837-32.77-6.7-1.893C2793.407-1397.712,2793.283-1464.781,2797.626-1492.36Z" fill="#390049"/>
    <path id="Path_27280" data-name="Path 27280" d="M2568.135-1429.543l-4.857-1.06-.286,11.436,3.293.751c13.289,3,25.332,1.042,35.794-5.822,15.075-9.9,21.352-26.585,21.419-26.759l1.339-3.662-14.422-6.18-1.455,4.165C2598.464-1426.435,2576.92-1427.628,2568.135-1429.543Z" fill="#390049"/>
    <path id="Path_27281" data-name="Path 27281" d="M2846.295-1590.946l4.3-6.918,13.768,12.709-2.874,4.73c-11.637,19.038-27.674,30.965-47.677,35.433-28.832,6.427-55.608-5.231-55.889-5.351l-5.832-2.6,9.188-24,6.556,3.041C2815.35-1551.749,2838.525-1578.435,2846.295-1590.946Z" fill="#390049"/>
    <path id="Path_27282" data-name="Path 27282" d="M2208.731-1361.026c-20.208,18.258-75.054,53.933-147.629-9.284l-5.117-4.46-20.451,27.148,4.6,3.859c.6.507,38.66,31.8,88.309,34.816,28.915,1.756,61.744-6.074,93.409-35.13l3.83-3.509-11.258-18.582Z" fill="#390049"/>
    <path id="Path_27283" data-name="Path 27283" d="M2409.952-1538.049a80.251,80.251,0,0,0,5.7,6.331c11.044,11.022,24.171,17.253,39.129,18.568,25.57,2.239,47.012-10.811,47.222-10.938l4.59-2.81-10.468-19.272-5.138,3.275c-38.334,24.487-61.383,4.194-69.437-5.7l-4.365-5.3-10.156,12.231Z" fill="#390049"/>
    <path id="Path_27284" data-name="Path 27284" d="M2265.487-1261.095l-21.716-.691,1.211,7.572c4.291,26.894,4.3,92.322-88.257,118.707l-6.528,1.859,11.612,31.944,5.741-1.75c.753-.227,47.736-15.076,77.326-55.057,17.233-23.284,28.564-55.075,21.465-97.461Z" fill="#390049"/>
    <path id="Path_27285" data-name="Path 27285" d="M2242.3-1489.508l-6.125-.584-.737,30.8,5.424.417c.71.057,45.271,3.024,83.442-20.963,22.231-13.97,42.286-37.068,50.278-75.191l.97-4.607-18.1-7.748-1.477,6.791C2350.723-1536.477,2329.145-1481.24,2242.3-1489.508Z" fill="#390049"/>
    <path id="Path_27286" data-name="Path 27286" d="M2149.759-1464.013l-.865-7.956-18.288,5.639.567,5.4c2.526,24.7,12.9,44.373,30.828,58.444,25.826,20.3,58.454,21.49,58.752,21.5l6.275.179,2.168-26.89-7.091-.069C2162.349-1408.354,2151.609-1447.3,2149.759-1464.013Z" fill="#390049"/>
    <path id="Path_27287" data-name="Path 27287" d="M2217.266-1268.345l3.013-5.152-16.011-14.18-4.5,7.577c-10.024,16.916-40.245,53.233-104.109,25.031l-7.14-3.153-10.312,28.73,6.344,2.675a135.779,135.779,0,0,0,46.551,8.383,108.454,108.454,0,0,0,25.736-2.983C2182.47-1227.7,2202.807-1243.494,2217.266-1268.345Z" fill="#390049"/>
    <path id="Path_27288" data-name="Path 27288" d="M2498.694-1315.955c-26.512,52.219-65.365,44.671-80.8,39.033l-7.419-2.715-3.013,18.6,5.012,1.879a89.455,89.455,0,0,0,31.415,6.007,76.7,76.7,0,0,0,33.364-7.647c28.978-13.833,44.312-42,44.452-42.265l2.9-5.479-22.754-13.654Z" fill="#390049"/>
    <path id="Path_27289" data-name="Path 27289" d="M2421.808-1373.288l-7.067-.437.2,26.977,6.242.276c.318.014,32.936,1.2,60.182-17.159,18.909-12.738,30.686-31.59,35.005-56.042l.96-5.354-17.828-6.957-1.443,7.872C2495.008-1407.574,2481.478-1369.506,2421.808-1373.288Z" fill="#390049"/>
    <path id="Path_27290" data-name="Path 27290" d="M2523.886-1216.233l-6.4,4.456c-57.221,39.976-93.9,10.193-106.983-4.485l-5.857-6.574-12.988,17.015,3.948,4.465c18.994,21.61,41.986,33.185,68.339,34.408,1.561.07,3.113.1,4.644.1,36.079,0,64.938-19.133,65.236-19.342l5.718-3.849Z" fill="#390049"/>
    <path id="Path_27291" data-name="Path 27291" d="M2333.944-1224.653l1.225-7.764-22.259.754-.864,5.253c-7.189,43.464,4.493,76.028,22.207,99.861,30.416,40.922,78.609,56.044,79.381,56.276l5.888,1.782,11.838-32.77-6.7-1.892C2329.726-1130.006,2329.6-1197.075,2333.944-1224.653Z" fill="#390049"/>
    <path id="Path_27292" data-name="Path 27292" d="M2128.969-1557.05c15.721,14.426,38.129,25.187,69.723,23.268l3.819-.228,2.187-15.852-5.639.3c-20.031,1.061-67.955-4-80.114-73.834l-.856-4.927-24.3,6.033.837,4.34C2094.738-1617.381,2101.977-1581.819,2128.969-1557.05Z" fill="#390049"/>
    <path id="Path_27293" data-name="Path 27293" d="M2256.438-1535.47c17.512-8.632,29.167-21.669,34.657-38.744,7.717-24.115.1-48.091-.249-49.145l-1.75-5.132-21.331,6.017,2.078,5.777c15.643,43.408-9.626,61.646-21.211,67.464l-6.186,3.1,9.785,12.738Z" fill="#390049"/>
    <path id="Path_27294" data-name="Path 27294" d="M2409.555-1420.509c17.275-6.562,34.311-19.724,45.1-44.925l1.307-3.044-11.42-7.853-1.959,4.482c-6.964,15.916-29.5,51.044-88.281,33.316l-4.145-1.251-4.773,21.15,3.685,1.038C2349.556-1417.458,2379.9-1409.241,2409.555-1420.509Z" fill="#390049"/>
    <path id="Path_27295" data-name="Path 27295" d="M2287.553-1411.793l.253-6.629-15.09,2.305-.215,4.5c-.821,18.159,4.57,33.522,16.039,45.656,16.537,17.482,39.93,21.817,40.175,21.863l5.123.9,4.739-20.4-5.813-.935C2290.579-1371.223,2287.1-1399.8,2287.553-1411.793Z" fill="#390049"/>
    <path id="Path_27296" data-name="Path 27296" d="M2598.467-1255.414l3.554-3.476,6.312,9.54-2.393,2.385c-9.671,9.593-20.916,14.328-33.426,14.064-18.029-.389-32.206-11.2-32.355-11.312l-3.079-2.392,8.943-12.893,3.444,2.758C2574.412-1236.683,2592.038-1249.129,2598.467-1255.414Z" fill="#390049"/>
    <path id="Path_27297" data-name="Path 27297" d="M2104.453-1161.837l-4.857-1.059-.286,11.435,3.294.752c13.288,3,25.332,1.041,35.794-5.822,15.074-9.9,21.352-26.586,21.418-26.76l1.34-3.661-14.423-6.181-1.455,4.166C2134.782-1158.729,2113.238-1159.922,2104.453-1161.837Z" fill="#390049"/>
    <path id="Path_27298" data-name="Path 27298" d="M2382.614-1323.239l4.3-6.919,13.768,12.71-2.874,4.729c-11.637,19.039-27.674,30.966-47.677,35.433-28.832,6.428-55.609-5.23-55.889-5.35l-5.833-2.6,9.189-24.005,6.555,3.042C2351.668-1284.042,2374.843-1310.728,2382.614-1323.239Z" fill="#390049"/>
    <path id="Path_27299" data-name="Path 27299" d="M2035.013-1583.661c-26.512,52.218-65.366,44.67-80.8,39.032l-7.419-2.715-3.013,18.6,5.012,1.88a89.469,89.469,0,0,0,31.415,6.006,76.684,76.684,0,0,0,33.363-7.647c28.979-13.833,44.313-42,44.452-42.264l2.9-5.48-22.753-13.653Z" fill="#390049"/>
    <path id="Path_27300" data-name="Path 27300" d="M2060.205-1483.939l-6.4,4.455c-57.221,39.977-93.9,10.193-106.983-4.485l-5.858-6.573-12.987,17.015,3.948,4.465c18.994,21.609,41.986,33.185,68.339,34.408,1.561.069,3.112.1,4.644.1,36.078,0,64.937-19.133,65.236-19.342l5.718-3.848Z" fill="#390049"/>
    <path id="Path_27301" data-name="Path 27301" d="M1870.263-1492.36l1.225-7.763-22.26.753-.864,5.253c-7.189,43.465,4.494,76.029,22.208,99.861,30.416,40.922,78.609,56.045,79.381,56.276l5.888,1.783,11.837-32.77-6.7-1.893C1866.044-1397.712,1865.921-1464.781,1870.263-1492.36Z" fill="#390049"/>
    <path id="Path_27302" data-name="Path 27302" d="M2134.785-1523.121l3.555-3.476,6.312,9.54-2.393,2.385c-9.672,9.593-20.917,14.328-33.426,14.064-18.03-.388-32.207-11.2-32.356-11.311l-3.078-2.392,8.943-12.893,3.444,2.757C2110.731-1504.389,2128.357-1516.835,2134.785-1523.121Z" fill="#390049"/>
    <path id="Path_27303" data-name="Path 27303" d="M1918.932-1590.946l4.3-6.918L1937-1585.155l-2.875,4.73c-11.636,19.038-27.674,30.965-47.676,35.433-28.833,6.427-55.609-5.231-55.89-5.351l-5.832-2.6,9.188-24,6.556,3.041C1887.987-1551.749,1911.162-1578.435,1918.932-1590.946Z" fill="#390049"/>
    <path id="Path_27304" data-name="Path 27304" d="M2333.944-1760.066l1.225-7.764-22.259.753-.864,5.254c-7.189,43.464,4.493,76.028,22.207,99.861,30.416,40.922,78.609,56.044,79.381,56.276l5.888,1.782,11.838-32.77-6.7-1.892C2329.726-1665.419,2329.6-1732.488,2333.944-1760.066Z" fill="#390049"/>
    <path id="Path_27305" data-name="Path 27305" d="M2672.413-557.906c-20.209,18.257-75.055,53.933-147.63-9.285l-5.117-4.46-20.45,27.149,4.6,3.858c.6.507,38.66,31.8,88.308,34.817,28.915,1.755,61.744-6.074,93.41-35.131l3.829-3.508L2678.1-563.048Z" fill="#390049"/>
    <path id="Path_27306" data-name="Path 27306" d="M2705.984-686.388l-6.124-.585-.738,30.8,5.424.417c.711.056,45.271,3.024,83.443-20.963,22.23-13.97,42.285-37.068,50.278-75.191l.97-4.607-18.1-7.748-1.476,6.791C2814.4-733.357,2792.827-678.12,2705.984-686.388Z" fill="#390049"/>
    <path id="Path_27307" data-name="Path 27307" d="M2613.441-660.894l-.866-7.955-18.287,5.638.566,5.4c2.526,24.7,12.9,44.373,30.828,58.444,25.826,20.3,58.454,21.49,58.752,21.5l6.275.179,2.168-26.89-7.09-.069C2626.03-605.234,2615.29-644.177,2613.441-660.894Z" fill="#390049"/>
    <path id="Path_27308" data-name="Path 27308" d="M2592.65-753.93c15.721,14.426,38.129,25.186,69.724,23.268l3.819-.229,2.187-15.852-5.64.3c-20.03,1.06-67.955-4-80.114-73.835l-.856-4.926-24.3,6.033.837,4.34C2558.419-814.261,2565.658-778.7,2592.65-753.93Z" fill="#390049"/>
    <path id="Path_27309" data-name="Path 27309" d="M2720.119-732.35c17.513-8.632,29.168-21.669,34.657-38.744,7.717-24.115.1-48.092-.249-49.146l-1.75-5.131-21.331,6.016,2.079,5.778c15.642,43.408-9.627,61.646-21.212,67.464l-6.185,3.1,9.785,12.739Z" fill="#390049"/>
    <path id="Path_27310" data-name="Path 27310" d="M2751.234-608.673l.253-6.63L2736.4-613l-.215,4.5c-.822,18.159,4.57,33.522,16.039,45.656,16.537,17.482,39.93,21.816,40.174,21.863l5.124.9,4.738-20.4-5.813-.935C2754.261-568.1,2750.778-596.684,2751.234-608.673Z" fill="#390049"/>
    <path id="Path_27311" data-name="Path 27311" d="M2128.969-486.224c15.721,14.426,38.129,25.187,69.723,23.269l3.819-.229,2.187-15.852-5.639.3c-20.031,1.06-67.955-4-80.114-73.835l-.856-4.926-24.3,6.032.837,4.341C2094.738-546.554,2101.977-510.992,2128.969-486.224Z" fill="#390049"/>
    <path id="Path_27312" data-name="Path 27312" d="M2256.438-464.644c17.512-8.631,29.167-21.669,34.657-38.743,7.717-24.116.1-48.092-.249-49.146l-1.75-5.131-21.331,6.016,2.078,5.778c15.643,43.407-9.626,61.646-21.211,67.463l-6.186,3.1,9.785,12.739Z" fill="#390049"/>
    <path id="Path_27313" data-name="Path 27313" d="M1946.271-734.929a79.994,79.994,0,0,0,5.695,6.33c11.043,11.023,24.171,17.254,39.129,18.569,25.57,2.239,47.011-10.812,47.222-10.938l4.589-2.811-10.468-19.271-5.137,3.275c-38.335,24.487-61.384,4.194-69.438-5.7l-4.365-5.3-10.156,12.232Z" fill="#390049"/>
    <path id="Path_27314" data-name="Path 27314" d="M1778.622-686.388l-6.125-.585-.737,30.8,5.423.417c.711.056,45.271,3.024,83.443-20.963,22.231-13.97,42.285-37.068,50.278-75.191l.97-4.607-18.1-7.748-1.476,6.791C1887.042-733.357,1865.464-678.12,1778.622-686.388Z" fill="#390049"/>
    <path id="Path_27315" data-name="Path 27315" d="M1958.127-570.168l-7.068-.437.2,26.977,6.241.276c.318.013,32.937,1.2,60.183-17.16,18.908-12.737,30.686-31.589,35-56.041l.96-5.355-17.829-6.956-1.442,7.872C2031.327-604.454,2017.8-566.386,1958.127-570.168Z" fill="#390049"/>
    <path id="Path_27316" data-name="Path 27316" d="M1945.874-617.389c17.274-6.562,34.311-19.724,45.1-44.925l1.308-3.044-11.42-7.853-1.96,4.482c-6.963,15.916-29.5,51.044-88.281,33.316l-4.145-1.251-4.772,21.15,3.685,1.038C1885.875-614.339,1916.213-606.121,1945.874-617.389Z" fill="#390049"/>
    <path id="Path_27317" data-name="Path 27317" d="M1823.871-608.673l.253-6.63L1809.035-613l-.215,4.5c-.822,18.159,4.57,33.522,16.039,45.656,16.537,17.482,39.93,21.816,40.174,21.863l5.124.9,4.738-20.4-5.813-.935C1826.9-568.1,1823.415-596.684,1823.871-608.673Z" fill="#390049"/>
    <path id="Path_27318" data-name="Path 27318" d="M2672.413-1093.319c-20.209,18.257-75.055,53.932-147.63-9.285l-5.117-4.46-20.45,27.149,4.6,3.858c.6.507,38.66,31.8,88.308,34.816,28.915,1.756,61.744-6.073,93.41-35.13l3.829-3.508-11.258-18.582Z" fill="#390049"/>
    <path id="Path_27319" data-name="Path 27319" d="M2729.169-993.389l-21.716-.69,1.211,7.571c4.29,26.894,4.3,92.322-88.257,118.708l-6.529,1.859L2625.491-834l5.74-1.75c.753-.228,47.736-15.077,77.326-55.057,17.234-23.285,28.565-55.076,21.466-97.462Z" fill="#390049"/>
    <path id="Path_27320" data-name="Path 27320" d="M2680.947-1000.639l3.013-5.151-16.01-14.181-4.495,7.578c-10.024,16.915-40.246,53.233-104.109,25.03l-7.14-3.152-10.313,28.729,6.345,2.676a135.771,135.771,0,0,0,46.55,8.383,108.445,108.445,0,0,0,25.736-2.984C2646.151-960,2666.488-975.787,2680.947-1000.639Z" fill="#390049"/>
    <path id="Path_27321" data-name="Path 27321" d="M2797.626-956.946l1.224-7.764-22.259.753-.864,5.254c-7.189,43.464,4.493,76.028,22.207,99.861,30.417,40.921,78.61,56.044,79.382,56.275l5.888,1.783,11.837-32.77-6.7-1.892C2793.407-862.3,2793.283-929.368,2797.626-956.946Z" fill="#390049"/>
    <path id="Path_27322" data-name="Path 27322" d="M2568.135-894.13l-4.857-1.06-.286,11.436,3.293.751c13.289,3,25.332,1.042,35.794-5.822,15.075-9.9,21.352-26.585,21.419-26.759l1.339-3.661-14.422-6.181-1.455,4.165C2598.464-891.022,2576.92-892.215,2568.135-894.13Z" fill="#390049"/>
    <path id="Path_27323" data-name="Path 27323" d="M2846.295-1055.532l4.3-6.919,13.768,12.71-2.874,4.729c-11.637,19.039-27.674,30.965-47.677,35.433-28.832,6.427-55.608-5.23-55.889-5.351l-5.832-2.6,9.188-24,6.556,3.041C2815.35-1016.336,2838.525-1043.022,2846.295-1055.532Z" fill="#390049"/>
    <path id="Path_27324" data-name="Path 27324" d="M2208.731-825.613c-20.208,18.258-75.054,53.933-147.629-9.284l-5.117-4.46-20.451,27.148,4.6,3.859c.6.507,38.66,31.8,88.309,34.816,28.915,1.756,61.744-6.074,93.409-35.13l3.83-3.509-11.258-18.582Z" fill="#390049"/>
    <path id="Path_27325" data-name="Path 27325" d="M2409.952-1002.635a80.41,80.41,0,0,0,5.7,6.33c11.044,11.022,24.171,17.253,39.129,18.568,25.57,2.239,47.012-10.811,47.222-10.938l4.59-2.81-10.468-19.271-5.138,3.274c-38.334,24.487-61.383,4.2-69.437-5.7l-4.365-5.3-10.156,12.231Z" fill="#390049"/>
    <path id="Path_27326" data-name="Path 27326" d="M2265.487-725.682l-21.716-.691,1.211,7.572c4.291,26.894,4.3,92.322-88.257,118.707l-6.528,1.859,11.612,31.945,5.741-1.751c.753-.227,47.736-15.076,77.326-55.057,17.233-23.284,28.564-55.075,21.465-97.461Z" fill="#390049"/>
    <path id="Path_27327" data-name="Path 27327" d="M2242.3-954.095l-6.125-.584-.737,30.8,5.424.416c.71.057,45.271,3.024,83.442-20.963,22.231-13.97,42.286-37.068,50.278-75.191l.97-4.606-18.1-7.748-1.477,6.79C2350.723-1001.063,2329.145-945.827,2242.3-954.095Z" fill="#390049"/>
    <path id="Path_27328" data-name="Path 27328" d="M2149.759-928.6l-.865-7.956-18.288,5.639.567,5.4c2.526,24.7,12.9,44.372,30.828,58.443,25.826,20.3,58.454,21.491,58.752,21.5l6.275.179,2.168-26.889-7.091-.07C2162.349-872.941,2151.609-911.883,2149.759-928.6Z" fill="#390049"/>
    <path id="Path_27329" data-name="Path 27329" d="M2217.266-732.932l3.013-5.151-16.011-14.181-4.5,7.577c-10.024,16.916-40.245,53.233-104.109,25.031l-7.14-3.153-10.312,28.73,6.344,2.675a135.753,135.753,0,0,0,46.551,8.383A108.45,108.45,0,0,0,2156.843-686C2182.47-692.289,2202.807-708.081,2217.266-732.932Z" fill="#390049"/>
    <path id="Path_27330" data-name="Path 27330" d="M2498.694-780.541c-26.512,52.218-65.365,44.67-80.8,39.032l-7.419-2.715-3.013,18.6,5.012,1.88a89.475,89.475,0,0,0,31.415,6.006,76.7,76.7,0,0,0,33.364-7.647c28.978-13.833,44.312-42,44.452-42.264l2.9-5.48-22.754-13.654Z" fill="#390049"/>
    <path id="Path_27331" data-name="Path 27331" d="M2421.808-837.875l-7.067-.436.2,26.976,6.242.277c.318.013,32.936,1.2,60.182-17.16,18.909-12.737,30.686-31.59,35.005-56.042l.96-5.354L2499.5-896.57l-1.443,7.871C2495.008-872.161,2481.478-834.093,2421.808-837.875Z" fill="#390049"/>
    <path id="Path_27332" data-name="Path 27332" d="M2523.886-680.819l-6.4,4.455c-57.221,39.977-93.9,10.193-106.983-4.485l-5.857-6.574-12.988,17.015,3.948,4.466c18.994,21.609,41.986,33.184,68.339,34.408,1.561.069,3.113.1,4.644.1,36.079,0,64.938-19.133,65.236-19.342l5.718-3.849Z" fill="#390049"/>
    <path id="Path_27333" data-name="Path 27333" d="M2333.944-689.24l1.225-7.764-22.259.754-.864,5.253c-7.189,43.464,4.493,76.028,22.207,99.861,30.416,40.922,78.609,56.044,79.381,56.276l5.888,1.782,11.838-32.77-6.7-1.892C2329.726-594.593,2329.6-661.662,2333.944-689.24Z" fill="#390049"/>
    <path id="Path_27334" data-name="Path 27334" d="M2128.969-1021.637c15.721,14.426,38.129,25.187,69.723,23.269l3.819-.229,2.187-15.852-5.639.3c-20.031,1.061-67.955-4-80.114-73.834l-.856-4.926-24.3,6.032.837,4.341C2094.738-1081.968,2101.977-1046.405,2128.969-1021.637Z" fill="#390049"/>
    <path id="Path_27335" data-name="Path 27335" d="M2256.438-1000.057c17.512-8.632,29.167-21.669,34.657-38.744,7.717-24.115.1-48.091-.249-49.145l-1.75-5.132-21.331,6.017,2.078,5.778c15.643,43.407-9.626,61.645-21.211,67.463l-6.186,3.1,9.785,12.739Z" fill="#390049"/>
    <path id="Path_27336" data-name="Path 27336" d="M2409.555-885.1c17.275-6.562,34.311-19.724,45.1-44.925l1.307-3.044-11.42-7.853-1.959,4.482c-6.964,15.916-29.5,51.044-88.281,33.317l-4.145-1.252-4.773,21.15,3.685,1.038C2349.556-882.045,2379.9-873.828,2409.555-885.1Z" fill="#390049"/>
    <path id="Path_27337" data-name="Path 27337" d="M2287.553-876.38l.253-6.629-15.09,2.3-.215,4.5c-.821,18.159,4.57,33.522,16.039,45.656,16.537,17.482,39.93,21.817,40.175,21.864l5.123.9,4.739-20.395-5.813-.935C2290.579-835.809,2287.1-864.391,2287.553-876.38Z" fill="#390049"/>
    <path id="Path_27338" data-name="Path 27338" d="M2598.467-720l3.554-3.476,6.312,9.54-2.393,2.385c-9.671,9.593-20.916,14.328-33.426,14.064-18.029-.388-32.206-11.2-32.355-11.312l-3.079-2.392,8.943-12.893,3.444,2.758C2574.412-701.269,2592.038-713.715,2598.467-720Z" fill="#390049"/>
    <path id="Path_27339" data-name="Path 27339" d="M2104.453-626.424l-4.857-1.059-.286,11.435,3.294.752c13.288,3,25.332,1.042,35.794-5.822,15.074-9.9,21.352-26.585,21.418-26.759l1.34-3.662-14.423-6.18-1.455,4.165C2134.782-623.315,2113.238-624.509,2104.453-626.424Z" fill="#390049"/>
    <path id="Path_27340" data-name="Path 27340" d="M2382.614-787.826l4.3-6.918,13.768,12.709-2.874,4.729c-11.637,19.039-27.674,30.966-47.677,35.433-28.832,6.428-55.609-5.23-55.889-5.35l-5.833-2.6,9.189-24,6.555,3.041C2351.668-748.629,2374.843-775.315,2382.614-787.826Z" fill="#390049"/>
    <path id="Path_27341" data-name="Path 27341" d="M2035.013-1048.248c-26.512,52.219-65.366,44.671-80.8,39.032l-7.419-2.715-3.013,18.6,5.012,1.879a89.451,89.451,0,0,0,31.415,6.007,76.686,76.686,0,0,0,33.363-7.648c28.979-13.833,44.313-41.995,44.452-42.264l2.9-5.479-22.753-13.654Z" fill="#390049"/>
    <path id="Path_27342" data-name="Path 27342" d="M2060.205-948.526l-6.4,4.455c-57.221,39.977-93.9,10.193-106.983-4.485l-5.858-6.573-12.987,17.015,3.948,4.465c18.994,21.609,41.986,33.185,68.339,34.408,1.561.07,3.112.1,4.644.1,36.078,0,64.937-19.133,65.236-19.342l5.718-3.848Z" fill="#390049"/>
    <path id="Path_27343" data-name="Path 27343" d="M1870.263-956.946l1.225-7.764-22.26.753-.864,5.254c-7.189,43.464,4.494,76.028,22.208,99.861,30.416,40.921,78.609,56.044,79.381,56.275l5.888,1.783,11.837-32.77-6.7-1.892C1866.044-862.3,1865.921-929.368,1870.263-956.946Z" fill="#390049"/>
    <path id="Path_27344" data-name="Path 27344" d="M2134.785-987.707l3.555-3.477,6.312,9.541-2.393,2.385c-9.672,9.592-20.917,14.328-33.426,14.063-18.03-.388-32.207-11.2-32.356-11.311L2073.4-978.9l8.943-12.893,3.444,2.758C2110.731-968.976,2128.357-981.422,2134.785-987.707Z" fill="#390049"/>
    <path id="Path_27345" data-name="Path 27345" d="M1918.932-1055.532l4.3-6.919,13.769,12.71-2.875,4.729c-11.636,19.039-27.674,30.965-47.676,35.433-28.833,6.427-55.609-5.23-55.89-5.351l-5.832-2.6,9.188-24,6.556,3.041C1887.987-1016.336,1911.162-1043.022,1918.932-1055.532Z" fill="#390049"/>
    <path id="Path_27346" data-name="Path 27346" d="M2333.944-1224.653l1.225-7.764-22.259.754-.864,5.253c-7.189,43.464,4.493,76.028,22.207,99.861,30.416,40.922,78.609,56.044,79.381,56.276l5.888,1.782,11.838-32.77-6.7-1.892C2329.726-1130.006,2329.6-1197.075,2333.944-1224.653Z" fill="#390049"/>
    <path id="Path_27347" data-name="Path 27347" d="M2672.413-22.493c-20.209,18.258-75.055,53.933-147.63-9.284l-5.117-4.461-20.45,27.149,4.6,3.858c.6.508,38.66,31.8,88.308,34.817,28.915,1.756,61.744-6.074,93.41-35.13l3.829-3.509L2678.1-27.635Z" fill="#390049"/>
    <path id="Path_27348" data-name="Path 27348" d="M2705.984-150.975l-6.124-.584-.738,30.8,5.424.417c.711.057,45.271,3.024,83.443-20.963,22.23-13.97,42.285-37.068,50.278-75.191l.97-4.607-18.1-7.748-1.476,6.791C2814.4-197.944,2792.827-142.707,2705.984-150.975Z" fill="#390049"/>
    <path id="Path_27349" data-name="Path 27349" d="M2613.441-125.48l-.866-7.956-18.287,5.639.566,5.4c2.526,24.7,12.9,44.373,30.828,58.444,25.826,20.3,58.454,21.49,58.752,21.5l6.275.179,2.168-26.89-7.09-.069C2626.03-69.821,2615.29-108.764,2613.441-125.48Z" fill="#390049"/>
    <path id="Path_27350" data-name="Path 27350" d="M2592.65-218.517c15.721,14.426,38.129,25.187,69.724,23.268l3.819-.228,2.187-15.852-5.64.3c-20.03,1.06-67.955-4-80.114-73.834l-.856-4.927-24.3,6.033.837,4.34C2558.419-278.848,2565.658-243.286,2592.65-218.517Z" fill="#390049"/>
    <path id="Path_27351" data-name="Path 27351" d="M2720.119-196.937c17.513-8.632,29.168-21.669,34.657-38.744,7.717-24.115.1-48.091-.249-49.146l-1.75-5.131-21.331,6.017,2.079,5.777c15.642,43.408-9.627,61.646-21.212,67.464l-6.185,3.1,9.785,12.739Z" fill="#390049"/>
    <path id="Path_27352" data-name="Path 27352" d="M2751.234-73.26l.253-6.63L2736.4-77.584l-.215,4.5c-.822,18.159,4.57,33.522,16.039,45.656,16.537,17.482,39.93,21.817,40.174,21.863l5.124.9,4.738-20.4-5.813-.935C2754.261-32.69,2750.778-61.271,2751.234-73.26Z" fill="#390049"/>
    <path id="Path_27353" data-name="Path 27353" d="M2128.969,49.19c15.721,14.425,38.129,25.186,69.723,23.268l3.819-.229,2.187-15.852-5.639.3c-20.031,1.06-67.955-4-80.114-73.835l-.856-4.926-24.3,6.033.837,4.34C2094.738-11.141,2101.977,24.421,2128.969,49.19Z" fill="#390049"/>
    <path id="Path_27354" data-name="Path 27354" d="M2256.438,70.77c17.512-8.632,29.167-21.669,34.657-38.744,7.717-24.116.1-48.092-.249-49.146l-1.75-5.131-21.331,6.016,2.078,5.778c15.643,43.408-9.626,61.646-21.211,67.463l-6.186,3.1,9.785,12.739Z" fill="#390049"/>
    <path id="Path_27355" data-name="Path 27355" d="M1946.271-199.516a79.813,79.813,0,0,0,5.695,6.33c11.043,11.023,24.171,17.254,39.129,18.569,25.57,2.239,47.011-10.812,47.222-10.938l4.589-2.81-10.468-19.272-5.137,3.275c-38.335,24.487-61.384,4.194-69.438-5.7l-4.365-5.3-10.156,12.231Z" fill="#390049"/>
    <path id="Path_27356" data-name="Path 27356" d="M1778.622-150.975l-6.125-.584-.737,30.8,5.423.417c.711.057,45.271,3.024,83.443-20.963,22.231-13.97,42.285-37.068,50.278-75.191l.97-4.607-18.1-7.748-1.476,6.791C1887.042-197.944,1865.464-142.707,1778.622-150.975Z" fill="#390049"/>
    <path id="Path_27357" data-name="Path 27357" d="M1958.127-34.755l-7.068-.437.2,26.977,6.241.276c.318.014,32.937,1.2,60.183-17.159,18.908-12.738,30.686-31.59,35-56.042l.96-5.354-17.829-6.957-1.442,7.872C2031.327-69.041,2017.8-30.973,1958.127-34.755Z" fill="#390049"/>
    <path id="Path_27358" data-name="Path 27358" d="M1945.874-81.976c17.274-6.562,34.311-19.724,45.1-44.925l1.308-3.044-11.42-7.853-1.96,4.482c-6.963,15.916-29.5,51.044-88.281,33.316l-4.145-1.251-4.772,21.15,3.685,1.038C1885.875-78.925,1916.213-70.708,1945.874-81.976Z" fill="#390049"/>
    <path id="Path_27359" data-name="Path 27359" d="M1823.871-73.26l.253-6.63-15.089,2.306-.215,4.5c-.822,18.159,4.57,33.522,16.039,45.656,16.537,17.482,39.93,21.817,40.174,21.863l5.124.9,4.738-20.4-5.813-.935C1826.9-32.69,1823.415-61.271,1823.871-73.26Z" fill="#390049"/>
    <path id="Path_27360" data-name="Path 27360" d="M2672.413-557.906c-20.209,18.257-75.055,53.933-147.63-9.285l-5.117-4.46-20.45,27.149,4.6,3.858c.6.507,38.66,31.8,88.308,34.817,28.915,1.755,61.744-6.074,93.41-35.131l3.829-3.508L2678.1-563.048Z" fill="#390049"/>
    <path id="Path_27361" data-name="Path 27361" d="M2729.169-457.976l-21.716-.69,1.211,7.571c4.29,26.895,4.3,92.323-88.257,118.708l-6.529,1.859,11.613,31.944,5.74-1.75c.753-.228,47.736-15.077,77.326-55.057,17.234-23.285,28.565-55.075,21.466-97.461Z" fill="#390049"/>
    <path id="Path_27362" data-name="Path 27362" d="M2680.947-465.226l3.013-5.151-16.01-14.181-4.495,7.578c-10.024,16.916-40.246,53.233-104.109,25.03l-7.14-3.152-10.313,28.73,6.345,2.675a135.772,135.772,0,0,0,46.55,8.383,108.444,108.444,0,0,0,25.736-2.983C2646.151-424.582,2666.488-440.374,2680.947-465.226Z" fill="#390049"/>
    <path id="Path_27363" data-name="Path 27363" d="M2797.626-421.533l1.224-7.764-22.259.753-.864,5.254c-7.189,43.464,4.493,76.028,22.207,99.861,30.417,40.921,78.61,56.044,79.382,56.276l5.888,1.782,11.837-32.77-6.7-1.892C2793.407-326.886,2793.283-393.955,2797.626-421.533Z" fill="#390049"/>
    <path id="Path_27364" data-name="Path 27364" d="M2568.135-358.717l-4.857-1.06-.286,11.436,3.293.751c13.289,3,25.332,1.042,35.794-5.821,15.075-9.9,21.352-26.586,21.419-26.76l1.339-3.661-14.422-6.181-1.455,4.165C2598.464-355.609,2576.92-356.8,2568.135-358.717Z" fill="#390049"/>
    <path id="Path_27365" data-name="Path 27365" d="M2846.295-520.119l4.3-6.919,13.768,12.71-2.874,4.729c-11.637,19.039-27.674,30.965-47.677,35.433-28.832,6.428-55.608-5.23-55.889-5.35l-5.832-2.6,9.188-24,6.556,3.041C2815.35-480.923,2838.525-507.608,2846.295-520.119Z" fill="#390049"/>
    <path id="Path_27366" data-name="Path 27366" d="M2208.731-290.2c-20.208,18.258-75.054,53.933-147.629-9.284l-5.117-4.46L2035.534-276.8l4.6,3.859c.6.507,38.66,31.8,88.309,34.816,28.915,1.756,61.744-6.073,93.409-35.13l3.83-3.509-11.258-18.581Z" fill="#390049"/>
    <path id="Path_27367" data-name="Path 27367" d="M2409.952-467.222a80.409,80.409,0,0,0,5.7,6.33c11.044,11.022,24.171,17.254,39.129,18.568,25.57,2.24,47.012-10.811,47.222-10.938l4.59-2.81-10.468-19.271-5.138,3.275c-38.334,24.486-61.383,4.194-69.437-5.7l-4.365-5.3-10.156,12.231Z" fill="#390049"/>
    <path id="Path_27368" data-name="Path 27368" d="M2265.487-190.269l-21.716-.691,1.211,7.572c4.291,26.894,4.3,92.322-88.257,118.707l-6.528,1.859,11.612,31.945,5.741-1.751c.753-.227,47.736-15.076,77.326-55.057,17.233-23.284,28.564-55.075,21.465-97.461Z" fill="#390049"/>
    <path id="Path_27369" data-name="Path 27369" d="M2242.3-418.681l-6.125-.585-.737,30.8,5.424.416c.71.057,45.271,3.024,83.442-20.963,22.231-13.97,42.286-37.067,50.278-75.191l.97-4.606-18.1-7.748-1.477,6.791C2350.723-465.65,2329.145-410.414,2242.3-418.681Z" fill="#390049"/>
    <path id="Path_27370" data-name="Path 27370" d="M2149.759-393.187l-.865-7.956-18.288,5.639.567,5.4c2.526,24.7,12.9,44.372,30.828,58.444,25.826,20.3,58.454,21.49,58.752,21.5l6.275.179,2.168-26.89-7.091-.07C2162.349-337.528,2151.609-376.47,2149.759-393.187Z" fill="#390049"/>
    <path id="Path_27371" data-name="Path 27371" d="M2217.266-197.519l3.013-5.151-16.011-14.181-4.5,7.578c-10.024,16.915-40.245,53.233-104.109,25.03l-7.14-3.152-10.312,28.729,6.344,2.675a135.739,135.739,0,0,0,46.551,8.384,108.454,108.454,0,0,0,25.736-2.984C2182.47-156.876,2202.807-172.668,2217.266-197.519Z" fill="#390049"/>
    <path id="Path_27372" data-name="Path 27372" d="M2498.694-245.128c-26.512,52.218-65.365,44.67-80.8,39.032l-7.419-2.715-3.013,18.6,5.012,1.88a89.474,89.474,0,0,0,31.415,6.006,76.7,76.7,0,0,0,33.364-7.647c28.978-13.833,44.312-42,44.452-42.264l2.9-5.48-22.754-13.653Z" fill="#390049"/>
    <path id="Path_27373" data-name="Path 27373" d="M2421.808-302.462l-7.067-.436.2,26.976,6.242.277c.318.013,32.936,1.2,60.182-17.16,18.909-12.737,30.686-31.589,35.005-56.042l.96-5.354-17.828-6.956-1.443,7.871C2495.008-336.748,2481.478-298.68,2421.808-302.462Z" fill="#390049"/>
    <path id="Path_27374" data-name="Path 27374" d="M2523.886-145.406l-6.4,4.455c-57.221,39.977-93.9,10.193-106.983-4.485l-5.857-6.573-12.988,17.015,3.948,4.465c18.994,21.609,41.986,33.185,68.339,34.408,1.561.069,3.113.1,4.644.1,36.079,0,64.938-19.133,65.236-19.342l5.718-3.848Z" fill="#390049"/>
    <path id="Path_27375" data-name="Path 27375" d="M2333.944-153.827l1.225-7.763-22.259.753-.864,5.253c-7.189,43.465,4.493,76.029,22.207,99.861C2364.669-14.8,2412.862.322,2413.634.553l5.888,1.783,11.838-32.77-6.7-1.893C2329.726-59.179,2329.6-126.249,2333.944-153.827Z" fill="#390049"/>
    <path id="Path_27376" data-name="Path 27376" d="M2128.969-486.224c15.721,14.426,38.129,25.187,69.723,23.269l3.819-.229,2.187-15.852-5.639.3c-20.031,1.06-67.955-4-80.114-73.835l-.856-4.926-24.3,6.032.837,4.341C2094.738-546.554,2101.977-510.992,2128.969-486.224Z" fill="#390049"/>
    <path id="Path_27377" data-name="Path 27377" d="M2256.438-464.644c17.512-8.631,29.167-21.669,34.657-38.743,7.717-24.116.1-48.092-.249-49.146l-1.75-5.131-21.331,6.016,2.078,5.778c15.643,43.407-9.626,61.646-21.211,67.463l-6.186,3.1,9.785,12.739Z" fill="#390049"/>
    <path id="Path_27378" data-name="Path 27378" d="M2409.555-349.682c17.275-6.563,34.311-19.725,45.1-44.925l1.307-3.045-11.42-7.853-1.959,4.482c-6.964,15.916-29.5,51.045-88.281,33.317l-4.145-1.251-4.773,21.15,3.685,1.038C2349.556-346.632,2379.9-338.415,2409.555-349.682Z" fill="#390049"/>
    <path id="Path_27379" data-name="Path 27379" d="M2287.553-340.967l.253-6.629-15.09,2.305-.215,4.5c-.821,18.159,4.57,33.522,16.039,45.656,16.537,17.483,39.93,21.817,40.175,21.864l5.123.9,4.739-20.395-5.813-.935C2290.579-300.4,2287.1-328.978,2287.553-340.967Z" fill="#390049"/>
    <path id="Path_27380" data-name="Path 27380" d="M2598.467-184.588l3.554-3.476,6.312,9.54-2.393,2.385c-9.671,9.593-20.916,14.328-33.426,14.064-18.029-.388-32.206-11.2-32.355-11.311l-3.079-2.392,8.943-12.894,3.444,2.758C2574.412-165.856,2592.038-178.3,2598.467-184.588Z" fill="#390049"/>
    <path id="Path_27381" data-name="Path 27381" d="M2104.453-91.01l-4.857-1.06-.286,11.435,3.294.752c13.288,3,25.332,1.042,35.794-5.822,15.074-9.9,21.352-26.585,21.418-26.759l1.34-3.662-14.423-6.18-1.455,4.165C2134.782-87.9,2113.238-89.1,2104.453-91.01Z" fill="#390049"/>
    <path id="Path_27382" data-name="Path 27382" d="M2382.614-252.413l4.3-6.918,13.768,12.709-2.874,4.729c-11.637,19.039-27.674,30.966-47.677,35.433-28.832,6.428-55.609-5.23-55.889-5.35l-5.833-2.6,9.189-24,6.555,3.041C2351.668-213.216,2374.843-239.9,2382.614-252.413Z" fill="#390049"/>
    <path id="Path_27383" data-name="Path 27383" d="M2035.013-512.835c-26.512,52.219-65.366,44.671-80.8,39.032l-7.419-2.715-3.013,18.6,5.012,1.879a89.451,89.451,0,0,0,31.415,6.007,76.686,76.686,0,0,0,33.363-7.648c28.979-13.832,44.313-41.995,44.452-42.264l2.9-5.479-22.753-13.654Z" fill="#390049"/>
    <path id="Path_27384" data-name="Path 27384" d="M2060.205-413.113l-6.4,4.455c-57.221,39.977-93.9,10.193-106.983-4.485l-5.858-6.573L1927.973-402.7l3.948,4.465c18.994,21.61,41.986,33.185,68.339,34.408,1.561.07,3.112.1,4.644.1,36.078,0,64.937-19.134,65.236-19.343l5.718-3.848Z" fill="#390049"/>
    <path id="Path_27385" data-name="Path 27385" d="M1870.263-421.533l1.225-7.764-22.26.753-.864,5.254c-7.189,43.464,4.494,76.028,22.208,99.861,30.416,40.921,78.609,56.044,79.381,56.276l5.888,1.782,11.837-32.77-6.7-1.892C1866.044-326.886,1865.921-393.955,1870.263-421.533Z" fill="#390049"/>
    <path id="Path_27386" data-name="Path 27386" d="M2134.785-452.294l3.555-3.476,6.312,9.54-2.393,2.385c-9.672,9.593-20.917,14.328-33.426,14.063-18.03-.388-32.207-11.2-32.356-11.311l-3.078-2.392,8.943-12.893,3.444,2.758C2110.731-433.563,2128.357-446.009,2134.785-452.294Z" fill="#390049"/>
    <path id="Path_27387" data-name="Path 27387" d="M1918.932-520.119l4.3-6.919L1937-514.328l-2.875,4.729c-11.636,19.039-27.674,30.965-47.676,35.433-28.833,6.428-55.609-5.23-55.89-5.35l-5.832-2.6,9.188-24,6.556,3.041C1887.987-480.923,1911.162-507.608,1918.932-520.119Z" fill="#390049"/>
    <path id="Path_27388" data-name="Path 27388" d="M2333.944-689.24l1.225-7.764-22.259.754-.864,5.253c-7.189,43.464,4.493,76.028,22.207,99.861,30.416,40.922,78.609,56.044,79.381,56.276l5.888,1.782,11.838-32.77-6.7-1.892C2329.726-594.593,2329.6-661.662,2333.944-689.24Z" fill="#390049"/>
  </g>
</svg>
